<?xml version="1.0" encoding="UTF-8"?>
<svg width="12px" height="13px" viewBox="0 0 12 13" version="1.1" xmlns="http://www.w3.org/2000/svg" xmlns:xlink="http://www.w3.org/1999/xlink">
    <!-- Generator: Sketch 59 (86127) - https://sketch.com -->
    <title>icons/close_d</title>
    <desc>Created with Sketch.</desc>
    <g id="Page-1" stroke="none" stroke-width="1" fill="none" fill-rule="evenodd" opacity="0.5">
        <g id="Lavachange/Admin_1-Popup" transform="translate(-952.000000, -185.000000)" fill="#040C36">
            <g id="popup" transform="translate(435.000000, 145.000000)">
                <g id="Group-5">
                    <g id="icons/close_d" transform="translate(517.000000, 40.000000)">
                        <path d="M0.696699141,1.19669914 C1.08722343,0.806174849 1.72038841,0.806174849 2.1109127,1.19669914 L2.1109127,1.19669914 L5.99980592,5.08480592 L9.8890873,1.19669914 C10.2796116,0.806174849 10.9127766,0.806174849 11.3033009,1.19669914 C11.6938252,1.58722343 11.6938252,2.22038841 11.3033009,2.6109127 L7.41380592,6.49980592 L11.3033009,10.3890873 C11.6637848,10.7495713 11.6915144,11.3168023 11.3864895,11.7090935 L11.3033009,11.8033009 C10.9127766,12.1938252 10.2796116,12.1938252 9.8890873,11.8033009 L9.8890873,11.8033009 L5.99980592,7.91380592 L2.1109127,11.8033009 C1.72038841,12.1938252 1.08722343,12.1938252 0.696699141,11.8033009 C0.306174849,11.4127766 0.306174849,10.7796116 0.696699141,10.3890873 L4.58480592,6.49980592 L0.696699141,2.6109127 C0.336215179,2.25042874 0.308485644,1.68319769 0.613510535,1.29090648 Z" id="Combined-Shape"></path>
                    </g>
                </g>
            </g>
        </g>
    </g>
</svg>