<svg width="41" height="40" viewBox="0 0 41 40" fill="none" xmlns="http://www.w3.org/2000/svg">
<path d="M20.5 39.8652C31.3691 39.8652 40.3721 30.8623 40.3721 19.9932C40.3721 9.12402 31.3486 0.121094 20.4795 0.121094C9.61035 0.121094 0.607422 9.12402 0.607422 19.9932C0.607422 30.8623 9.63086 39.8652 20.5 39.8652ZM13.7324 28.4629C12.7891 28.4629 12.0508 27.7041 12.0508 26.7402C12.0508 26.3096 12.2148 25.8789 12.543 25.5713L18.1006 20.0137L12.543 14.4561C12.2148 14.1484 12.0508 13.7383 12.0508 13.2871C12.0508 12.3438 12.7891 11.626 13.7324 11.626C14.2041 11.626 14.5938 11.7695 14.9014 12.0977L20.4795 17.6553L26.0781 12.0771C26.4268 11.7285 26.8164 11.585 27.2676 11.585C28.1904 11.585 28.9492 12.3232 28.9492 13.2461C28.9492 13.7178 28.7852 14.0869 28.457 14.4561L22.8789 20.0137L28.4365 25.5508C28.7441 25.8789 28.9287 26.2891 28.9287 26.7402C28.9287 27.7041 28.1699 28.4629 27.2266 28.4629C26.7549 28.4629 26.3447 28.2578 26.0166 27.9502L20.4795 22.3926L14.9629 27.9502C14.6348 28.2783 14.2041 28.4629 13.7324 28.4629Z" fill="#F30909"/>
</svg>
