<?xml version="1.0" encoding="UTF-8"?>
<svg width="20px" height="20px" viewBox="0 0 20 20" version="1.1" xmlns="http://www.w3.org/2000/svg" xmlns:xlink="http://www.w3.org/1999/xlink">
    <!-- Generator: Sketch 59 (86127) - https://sketch.com -->
    <title>payment/icons/help3</title>
    <desc>Created with Sketch.</desc>
    <g id="1440" stroke="none" stroke-width="1" fill="none" fill-rule="evenodd">
        <g id="Step-4" transform="translate(-616.000000, -385.000000)" fill="#E5E6EB" fill-rule="nonzero">
            <g id="payment/icons/help3" transform="translate(616.000000, 385.000000)">
                <path d="M10,0 C15.5228475,0 20,4.4771525 20,10 C20,15.5228475 15.5228475,20 10,20 C4.4771525,20 0,15.5228475 0,10 C0,4.4771525 4.4771525,0 10,0 Z M10,2 C5.581722,2 2,5.581722 2,10 C2,14.418278 5.581722,18 10,18 C14.418278,18 18,14.418278 18,10 C18,5.581722 14.418278,2 10,2 Z" id="Oval"></path>
                <path d="M10.936,11.492 L9.52,11.492 L9.52,11.036 C9.52,10.6519981 9.576,10.3360012 9.688,10.088 C9.80000056,9.83999876 10.0079985,9.57200144 10.312,9.284 L10.852,8.768 C11.2200018,8.43199832 11.404,8.07600188 11.404,7.7 C11.404,7.3799984 11.302001,7.11600104 11.098,6.908 C10.893999,6.69999896 10.6200017,6.596 10.276,6.596 C9.9159982,6.596 9.6260011,6.71799878 9.406,6.962 C9.1859989,7.20600122 9.06800008,7.49999828 9.052,7.844 L7.576,7.712 C7.66400044,6.95999624 7.96399744,6.36800216 8.476,5.936 C8.98800256,5.50399784 9.61999624,5.288 10.372,5.288 C11.1000036,5.288 11.7079976,5.49199796 12.196,5.9 C12.6840024,6.30800204 12.928,6.87599636 12.928,7.604 C12.928,8.06800232 12.8360009,8.44399856 12.652,8.732 C12.4942849,8.97885838 12.2454707,9.25803979 11.9055517,9.5695505 L11.728,9.728 C11.3999984,10.0160014 11.1860005,10.2459991 11.086,10.418 C10.9859995,10.5900009 10.936,10.8439983 10.936,11.18 L10.936,11.492 Z M9.568,13.808 C9.37599904,13.6319991 9.28,13.4160013 9.28,13.16 C9.28,12.9039987 9.37399906,12.6840009 9.562,12.5 C9.75000094,12.3159991 9.97599868,12.224 10.24,12.224 C10.5040013,12.224 10.7299991,12.3119991 10.918,12.488 C11.1060009,12.6640009 11.2,12.8799987 11.2,13.136 C11.2,13.3920013 11.1060009,13.6119991 10.918,13.796 C10.7299991,13.9800009 10.5040013,14.072 10.24,14.072 C9.98399872,14.072 9.76000096,13.9840009 9.568,13.808 Z" id="?"></path>
            </g>
        </g>
    </g>
</svg>