<svg width="15" height="15" viewBox="0 0 15 15" fill="none" xmlns="http://www.w3.org/2000/svg">
<path fill-rule="evenodd" clip-rule="evenodd" d="M14.1787 7.47852C14.1787 11.1084 11.1777 14.1094 7.55469 14.1094C3.93164 14.1094 0.923828 11.1084 0.923828 7.47852C0.923828 3.85547 3.9248 0.854492 7.54785 0.854492C11.1709 0.854492 14.1787 3.85547 14.1787 7.47852ZM2.11328 7.47852C2.11328 10.5068 4.5332 12.9268 7.55469 12.9268C10.5762 12.9268 13.0098 10.5068 13.0029 7.47852C12.9961 4.45703 10.5693 2.03027 7.54785 2.03027C4.52637 2.03027 2.11328 4.45703 2.11328 7.47852ZM7.5 5.21582C7.97852 5.21582 8.35449 4.83301 8.35449 4.36133C8.35449 3.87598 7.97852 3.5 7.5 3.5C7.02832 3.5 6.64551 3.87598 6.64551 4.36133C6.64551 4.83301 7.02832 5.21582 7.5 5.21582ZM9.53711 10.5479C9.53711 10.8281 9.31836 11.0264 9.04492 11.0264H6.41309C6.14648 11.0264 5.92773 10.8281 5.92773 10.5479C5.92773 10.2881 6.14648 10.083 6.41309 10.083H7.20605V7.21191H6.5293C6.25586 7.21191 6.04395 7.01367 6.04395 6.7334C6.04395 6.47363 6.25586 6.26855 6.5293 6.26855H7.75293C8.08789 6.26855 8.27246 6.50781 8.27246 6.87012V10.083H9.04492C9.31836 10.083 9.53711 10.2881 9.53711 10.5479Z" fill="#78FF73"/>
</svg>
