<svg width="41" height="40" viewBox="0 0 41 40" fill="none" xmlns="http://www.w3.org/2000/svg">
<path d="M20.5 39.8652C31.3691 39.8652 40.3721 30.8623 40.3721 19.9932C40.3721 9.12402 31.3486 0.121094 20.4795 0.121094C9.61035 0.121094 0.607422 9.12402 0.607422 19.9932C0.607422 30.8623 9.63086 39.8652 20.5 39.8652ZM18.3057 29.5088C17.6084 29.5088 17.0547 29.2217 16.542 28.5449L11.7021 22.6387C11.3945 22.2285 11.2305 21.7773 11.2305 21.3262C11.2305 20.4033 11.9277 19.665 12.8711 19.665C13.4248 19.665 13.876 19.8496 14.3682 20.4854L18.2236 25.4482L26.4268 12.3232C26.7959 11.6875 27.3291 11.3799 27.8828 11.3799C28.7646 11.3799 29.585 11.9951 29.585 12.9385C29.585 13.3691 29.3594 13.8408 29.0928 14.251L19.9873 28.5244C19.5771 29.1807 19.0029 29.5088 18.3057 29.5088Z" fill="#2048E6"/>
</svg>
