<?xml version="1.0" encoding="UTF-8"?>
<svg width="26px" height="26px" viewBox="0 0 26 26" version="1.1" xmlns="http://www.w3.org/2000/svg" xmlns:xlink="http://www.w3.org/1999/xlink">
    <!-- Generator: Sketch 59 (86127) - https://sketch.com -->
    <title>icons/cards/01/unavailable</title>
    <desc>Created with Sketch.</desc>
    <g id="1440" stroke="none" stroke-width="1" fill="none" fill-rule="evenodd">
        <g id="Lavachange-Cards" transform="translate(-359.000000, -592.000000)">
            <g id="01" transform="translate(135.000000, 150.000000)">
                <g id="tag" transform="translate(204.000000, 430.000000)">
                    <g id="icons/cards/01/unavailable" transform="translate(20.000000, 12.000000)">
                        <circle id="Oval" fill="#FFB24D" cx="13" cy="13" r="13"></circle>
                        <path d="M8.70710678,7.29289322 L13,11.585 L17.2928932,7.29289322 C17.6533772,6.93240926 18.2206082,6.90467972 18.6128994,7.20970461 L18.7071068,7.29289322 C19.0976311,7.68341751 19.0976311,8.31658249 18.7071068,8.70710678 L18.7071068,8.70710678 L14.415,13 L18.7071068,17.2928932 C19.0976311,17.6834175 19.0976311,18.3165825 18.7071068,18.7071068 C18.3165825,19.0976311 17.6834175,19.0976311 17.2928932,18.7071068 L13,14.415 L8.70710678,18.7071068 C8.34662282,19.0675907 7.77939176,19.0953203 7.38710056,18.7902954 L7.29289322,18.7071068 C6.90236893,18.3165825 6.90236893,17.6834175 7.29289322,17.2928932 L7.29289322,17.2928932 L11.585,13 L7.29289322,8.70710678 C6.90236893,8.31658249 6.90236893,7.68341751 7.29289322,7.29289322 C7.68341751,6.90236893 8.31658249,6.90236893 8.70710678,7.29289322 Z" id="Combined-Shape" fill="#FFFFFF" fill-rule="nonzero"></path>
                    </g>
                </g>
            </g>
        </g>
    </g>
</svg>